<svg xmlns="http://www.w3.org/2000/svg" width="512" height="512" viewBox="0 0 512 512">
  <defs>
    <linearGradient id="bg" x1="0%" y1="0%" x2="100%" y2="100%">
      <stop offset="0%" stop-color="#9FBC98"/>
      <stop offset="45%" stop-color="#375534"/>
      <stop offset="100%" stop-color="#0F2A1D"/>
    </linearGradient>
    <radialGradient id="sheen" cx="20%" cy="15%" r="60%">
      <stop offset="0%" stop-color="#FFFFFF" stop-opacity="0.25"/>
      <stop offset="100%" stop-color="#FFFFFF" stop-opacity="0"/>
    </radialGradient>
    <radialGradient id="glow" cx="50%" cy="50%" r="50%">
      <stop offset="0%" stop-color="#F2CC8F" stop-opacity="0.65"/>
      <stop offset="100%" stop-color="#F2CC8F" stop-opacity="0"/>
    </radialGradient>
  </defs>

  <rect width="512" height="512" rx="112" fill="url(#bg)"/>
  <rect width="512" height="512" rx="112" fill="url(#sheen)"/>

  <circle cx="416" cy="114" r="60" fill="url(#glow)"/>

  <path d="M76 258 L256 96 L436 258" fill="none" stroke="#F5F1E6" stroke-width="32" stroke-linecap="round" stroke-linejoin="round"/>
  <path d="M116 252 V400 Q116 432 148 432 H364 Q396 432 396 400 V252" fill="none" stroke="#F5F1E6" stroke-width="32" stroke-linecap="round" stroke-linejoin="round"/>

  <path d="M256 388 C200 348 172 318 172 282 C172 252 194 232 220 232 C236 232 249 240 256 254 C263 240 276 232 292 232 C318 232 340 252 340 282 C340 318 312 348 256 388 Z" fill="#7EA17A"/>

  <path d="M416 64 C424 100 430 106 466 114 C430 122 424 128 416 164 C408 128 402 122 366 114 C402 106 408 100 416 64 Z" fill="#F5F1E6"/>
</svg>